<?xml version="1.0" encoding="UTF-8"?>
<svg id="Lager_1" xmlns="http://www.w3.org/2000/svg" version="1.1" viewBox="0 0 472.3 471.3">
  <!-- Generator: Adobe Illustrator 30.3.0, SVG Export Plug-In . SVG Version: 2.1.3 Build 182)  -->
  <defs>
    <style>
      .st0 {
        fill: #010101;
      }

      .st1 {
        fill: #fff;
      }
    </style>
  </defs>
  <rect class="st1" x="0" y="-1" width="472.3" height="472.3"/>
  <g>
    <path class="st0" d="M77.3,327.7h92.7c9.1,0,17.8,3.6,24.2,10.1l50.9,51.5c6.4,6.5,15.1,10.1,24.2,10.1h38.4v-71.8h-92.7c-9.1,0-17.8-3.6-24.2-10.1l-50.9-51.5c-6.4-6.5-15.1-10.1-24.2-10.1h-38.4v71.8Z"/>
    <path class="st0" d="M164.7,142.5h92.7c9.1,0,17.8,3.6,24.2,10.1l50.9,51.5c6.4,6.5,15.1,10.1,24.2,10.1h38.4v-71.8h-92.7c-9.1,0-17.8-3.6-24.2-10.1l-50.9-51.5c-6.4-6.5-15.1-10.1-24.2-10.1h-38.4v71.8Z"/>
    <path class="st0" d="M77.3,235.1h136.4c9.1,0,17.8,3.6,24.2,10.1l50.9,51.5c6.4,6.5,15.1,10.1,24.2,10.1h82.1v-71.8h-136.4c-9.1,0-17.8-3.6-24.2-10.1l-50.9-51.5c-6.4-6.5-15.1-10.1-24.2-10.1h-82.1v71.8Z"/>
  </g>
</svg>