<?xml version="1.0" encoding="UTF-8"?>
<svg id="Lager_1" xmlns="http://www.w3.org/2000/svg" version="1.1" viewBox="0 0 455.5 471.3">
  <!-- Generator: Adobe Illustrator 30.3.0, SVG Export Plug-In . SVG Version: 2.1.3 Build 182)  -->
  <defs>
    <style>
      .st0 {
        fill: #fff;
      }
    </style>
  </defs>
  <path class="st0" d="M0,368.4h132.8c13,0,25.5,5.2,34.7,14.5l73,73.9c9.2,9.3,21.7,14.5,34.7,14.5h55v-102.9h-132.8c-13,0-25.5-5.2-34.7-14.5l-73-73.9c-9.2-9.3-21.7-14.5-34.7-14.5H0v102.9Z"/>
  <path class="st0" d="M125.3,102.9h132.8c13,0,25.5,5.2,34.7,14.5l73,73.9c9.2,9.3,21.7,14.5,34.7,14.5h55v-102.9h-132.8c-13,0-25.5-5.2-34.7-14.5L215,14.5C205.8,5.2,193.3,0,180.3,0h-55v102.9Z"/>
  <path class="st0" d="M0,235.6h195.5c13,0,25.5,5.2,34.7,14.5l73,73.9c9.2,9.3,21.7,14.5,34.7,14.5h117.6v-102.9h-195.5c-13,0-25.5-5.2-34.7-14.5l-73-73.9c-9.2-9.3-21.7-14.5-34.7-14.5H0v102.9Z"/>
</svg>