<?xml version="1.0" encoding="UTF-8"?>
<svg id="Lager_1" data-name="Lager 1" xmlns="http://www.w3.org/2000/svg" viewBox="0 0 1908.21 197.46">
  <g>
    <path d="M0,133.74h49.17c4.83,0,9.46,1.9,12.85,5.26l27.03,26.83c3.39,3.37,8.02,5.26,12.85,5.26h20.36s0-37.35,0-37.35h-49.17c-4.83,0-9.46-1.9-12.85-5.26l-27.03-26.83c-3.39-3.37-8.02-5.26-12.85-5.26H0s0,37.35,0,37.35Z"/>
    <path d="M46.37,37.35h49.17c4.83,0,9.46,1.9,12.85,5.26l27.03,26.83c3.39,3.37,8.02,5.26,12.85,5.26h20.36s0-37.35,0-37.35h-49.17c-4.83,0-9.46-1.9-12.85-5.26l-27.03-26.83C76.19,1.9,71.56,0,66.73,0h-20.36s0,37.35,0,37.35Z"/>
    <path d="M0,85.55h72.35c4.83,0,9.46,1.9,12.85,5.26l27.03,26.83c3.39,3.37,8.02,5.26,12.85,5.26h43.55s0-37.35,0-37.35h-72.35c-4.83,0-9.46-1.9-12.85-5.26l-27.03-26.83c-3.39-3.37-8.02-5.26-12.85-5.26H0s0,37.35,0,37.35Z"/>
  </g>
  <g>
    <g>
      <path d="M251.29,40.25l.56,89.77c0,5.74,1.4,9.81,4.22,12.18,2.81,2.38,7.12,3.72,12.92,4.03v6.02h-43.82v-6.02c5.74-.31,10.02-1.65,12.83-4.03,2.81-2.38,4.22-6.44,4.22-12.18V41.08c0-5.74-1.41-9.8-4.22-12.18-2.81-2.38-7.09-3.72-12.83-4.03v-6.02h32.33l81.71,101.91-.46-79.67c-.06-5.74-1.5-9.8-4.31-12.18-2.81-2.38-7.12-3.72-12.92-4.03v-6.02h43.82v6.02c-5.74.31-10.02,1.65-12.83,4.03-2.81,2.38-4.22,6.44-4.22,12.18v112.65h-5.93l-91.07-113.49Z"/>
      <path d="M387.47,147.99c-6.67-4.32-11.95-10.22-15.84-17.69-3.89-7.47-5.84-15.72-5.84-24.74s1.99-17.74,5.98-25.43c3.98-7.69,9.4-13.77,16.26-18.25,6.86-4.48,14.39-6.72,22.6-6.72s15.5,2.1,22.23,6.3c6.73,4.2,12.06,9.93,15.98,17.19,3.92,7.26,5.88,15.24,5.88,23.95,0,9.57-2.01,18.31-6.02,26.22-4.02,7.91-9.48,14.16-16.4,18.76-6.92,4.6-14.51,6.9-22.79,6.9s-15.38-2.16-22.05-6.49ZM425.36,142.29c3.89-3.12,6.89-7.58,8.99-13.39,2.1-5.8,3.15-12.6,3.15-20.38,0-8.89-1.2-16.81-3.61-23.76-2.41-6.95-5.78-12.37-10.1-16.26-4.32-3.89-9.26-5.84-14.82-5.84s-9.91,1.51-13.8,4.54c-3.89,3.03-6.89,7.33-8.99,12.92-2.1,5.59-3.15,12.12-3.15,19.59,0,8.59,1.22,16.49,3.66,23.72,2.44,7.23,5.84,12.96,10.19,17.19,4.35,4.23,9.28,6.35,14.78,6.35s9.82-1.56,13.71-4.68Z"/>
      <path d="M461.38,146.23c5.74-.31,10.02-1.65,12.83-4.03,2.81-2.38,4.22-6.44,4.22-12.18v-44.75c0-4.32-.5-7.67-1.48-10.05-.99-2.38-2.49-4.08-4.49-5.1-2.01-1.02-4.71-1.62-8.11-1.81v-5.37l26.4-6.76,2.5,17.88c3.15-5.74,7.13-10.33,11.95-13.76,4.82-3.43,9.67-5.14,14.54-5.14,3.71,0,6.65.99,8.85,2.96,2.19,1.98,3.29,4.54,3.29,7.69,0,2.84-.9,5.23-2.69,7.18-1.79,1.95-3.95,2.92-6.49,2.92-1.3,0-2.44-.26-3.43-.79-.99-.52-2.1-1.28-3.34-2.27-1.36-1.05-2.58-1.85-3.66-2.41-1.08-.56-2.36-.83-3.84-.83-2.72,0-5.17.99-7.37,2.96-2.19,1.98-3.92,4.83-5.19,8.57-1.27,3.74-1.9,8.17-1.9,13.29v35.57c0,5.74,1.4,9.81,4.22,12.18,2.81,2.38,7.09,3.72,12.83,4.03v6.02h-49.66v-6.02Z"/>
      <path d="M554.77,148.13c-5.93-4.23-10.59-10.07-13.99-17.51-3.4-7.44-5.1-15.73-5.1-24.87,0-9.82,1.85-18.56,5.56-26.22,3.71-7.66,8.88-13.63,15.52-17.93,6.64-4.29,14.19-6.44,22.65-6.44,9.63,0,17.54,2.72,23.72,8.15v-23.07c0-4.26-.51-7.56-1.53-9.91-1.02-2.35-2.56-4.01-4.63-5-2.07-.99-4.9-1.57-8.48-1.76v-4.91l30.2-7.97v113.95c0,4.32.49,7.68,1.48,10.05.99,2.38,2.47,4.08,4.45,5.1,1.98,1.02,4.69,1.62,8.15,1.81v5.19l-25.94,6.95-3.06-16.86c-3.09,5.37-7.23,9.65-12.41,12.83-5.19,3.18-10.81,4.77-16.86,4.77-7.23,0-13.8-2.12-19.73-6.35ZM556.53,122.98c2.41,6.24,5.76,11.07,10.05,14.5,4.29,3.43,9.19,5.14,14.68,5.14,4.51,0,8.41-1.17,11.72-3.52,3.3-2.35,5.82-5.5,7.55-9.45,1.73-3.95,2.59-8.34,2.59-13.16v-29.55c0-5.06-.93-9.42-2.78-13.06-1.85-3.64-4.45-6.42-7.78-8.34-3.34-1.91-7.26-2.87-11.77-2.87-5.68,0-10.62,1.56-14.82,4.68-4.2,3.12-7.43,7.6-9.68,13.43-2.26,5.84-3.38,12.74-3.38,20.71s1.2,15.26,3.61,21.49Z"/>
      <path d="M638.43,146.23c5.74-.31,10.02-1.65,12.83-4.03,2.81-2.38,4.22-6.44,4.22-12.18v-44.75c0-4.32-.5-7.67-1.48-10.05-.99-2.38-2.49-4.08-4.49-5.1-2.01-1.02-4.71-1.62-8.11-1.81v-5.37l29.65-7.6v74.67c0,5.74,1.4,9.81,4.22,12.18,2.81,2.38,7.09,3.72,12.83,4.03v6.02h-49.66v-6.02ZM655.29,30.01c-2.1-2.07-3.15-4.62-3.15-7.64s1.05-5.57,3.15-7.64c2.1-2.07,4.66-3.1,7.69-3.1s5.57,1.03,7.64,3.1c2.07,2.07,3.1,4.62,3.1,7.64s-1.04,5.57-3.1,7.64c-2.07,2.07-4.62,3.1-7.64,3.1s-5.59-1.03-7.69-3.1Z"/>
      <path d="M713.18,148.27c-6.55-4.14-11.61-9.85-15.19-17.14-3.58-7.29-5.37-15.53-5.37-24.74,0-9.7,2.04-18.45,6.11-26.26,4.08-7.81,9.6-13.93,16.58-18.34,6.98-4.41,14.67-6.62,23.07-6.62,5.99,0,11.47,1.17,16.44,3.52,4.97,2.35,8.88,5.36,11.72,9.03,2.84,3.68,4.26,7.4,4.26,11.16,0,2.78-.87,5.1-2.59,6.95-1.73,1.85-3.86,2.78-6.39,2.78s-4.65-.89-6.16-2.69c-1.51-1.79-2.42-4.29-2.73-7.5-.37-4.38-2.07-7.98-5.1-10.79-3.03-2.81-7.07-4.22-12.14-4.22s-9.73,1.53-13.62,4.59c-3.89,3.06-6.9,7.44-9.03,13.16-2.13,5.71-3.2,12.43-3.2,20.15,0,8.4,1.3,15.72,3.89,21.96,2.59,6.24,6.25,11.02,10.98,14.36,4.72,3.34,10.24,5,16.54,5s11.46-1.62,15.84-4.86c4.38-3.24,7.81-7.86,10.28-13.85l5.74,2.87c-2.66,8.52-7.27,15.27-13.85,20.24-6.58,4.97-14.41,7.46-23.49,7.46-8.52,0-16.06-2.07-22.6-6.21Z"/>
    </g>
    <g>
      <path d="M810.62,146.23c4.57-.31,8.32-1.59,11.26-3.84,2.93-2.25,5.39-6.07,7.37-11.44l41.41-112.84h12.23l43.73,112.93c2.1,5.37,4.51,9.17,7.23,11.4,2.72,2.22,6.05,3.49,10.01,3.8v6.02h-49.1v-6.02c4.45-.25,7.8-1.03,10.05-2.36,2.25-1.33,3.38-3.44,3.38-6.35,0-1.79-.46-3.98-1.39-6.58l-10.56-28.72h-47.16l-10.1,28.63c-.93,2.59-1.39,4.79-1.39,6.58,0,2.96,1.13,5.11,3.38,6.44,2.25,1.33,5.64,2.12,10.14,2.36v6.02h-40.49v-6.02ZM893.54,94.81l-21.31-57.99-20.47,57.99h41.78Z"/>
      <path d="M964.55,148.27c-6.55-4.14-11.61-9.85-15.19-17.14-3.58-7.29-5.37-15.53-5.37-24.74,0-9.7,2.04-18.45,6.11-26.26,4.08-7.81,9.6-13.93,16.58-18.34,6.98-4.41,14.67-6.62,23.07-6.62,5.99,0,11.47,1.17,16.44,3.52,4.97,2.35,8.88,5.36,11.72,9.03,2.84,3.68,4.26,7.4,4.26,11.16,0,2.78-.87,5.1-2.59,6.95-1.73,1.85-3.86,2.78-6.39,2.78s-4.65-.89-6.16-2.69c-1.51-1.79-2.42-4.29-2.73-7.5-.37-4.38-2.07-7.98-5.1-10.79-3.03-2.81-7.07-4.22-12.14-4.22s-9.73,1.53-13.62,4.59c-3.89,3.06-6.9,7.44-9.03,13.16-2.13,5.71-3.2,12.43-3.2,20.15,0,8.4,1.3,15.72,3.89,21.96,2.59,6.24,6.25,11.02,10.98,14.36,4.72,3.34,10.24,5,16.54,5s11.46-1.62,15.84-4.86c4.38-3.24,7.81-7.86,10.28-13.85l5.74,2.87c-2.66,8.52-7.27,15.27-13.85,20.24-6.58,4.97-14.41,7.46-23.49,7.46-8.52,0-16.06-2.07-22.6-6.21Z"/>
      <path d="M1051.96,148.27c-6.55-4.14-11.61-9.85-15.19-17.14-3.58-7.29-5.37-15.53-5.37-24.74,0-9.7,2.04-18.45,6.11-26.26,4.08-7.81,9.6-13.93,16.58-18.34,6.98-4.41,14.67-6.62,23.07-6.62,5.99,0,11.47,1.17,16.44,3.52,4.97,2.35,8.88,5.36,11.72,9.03,2.84,3.68,4.26,7.4,4.26,11.16,0,2.78-.87,5.1-2.59,6.95-1.73,1.85-3.86,2.78-6.39,2.78s-4.65-.89-6.16-2.69c-1.51-1.79-2.42-4.29-2.73-7.5-.37-4.38-2.07-7.98-5.1-10.79-3.03-2.81-7.07-4.22-12.14-4.22s-9.73,1.53-13.62,4.59c-3.89,3.06-6.9,7.44-9.03,13.16-2.13,5.71-3.2,12.43-3.2,20.15,0,8.4,1.3,15.72,3.89,21.96,2.59,6.24,6.25,11.02,10.98,14.36s10.24,5,16.54,5,11.46-1.62,15.84-4.86c4.38-3.24,7.81-7.86,10.28-13.85l5.74,2.87c-2.66,8.52-7.27,15.27-13.85,20.24-6.58,4.97-14.41,7.46-23.49,7.46-8.52,0-16.06-2.07-22.6-6.21Z"/>
      <path d="M1140.18,148.5c-6.3-3.98-11.15-9.54-14.54-16.68-3.4-7.13-5.1-15.3-5.1-24.5,0-9.7,1.91-18.53,5.74-26.5,3.83-7.97,9.06-14.24,15.7-18.81,6.64-4.57,13.94-6.86,21.91-6.86,7.1,0,13.46,1.82,19.08,5.47,5.62,3.65,10.02,8.72,13.2,15.24,3.18,6.52,4.77,13.88,4.77,22.1,0,.93-.34,1.65-1.02,2.18-.68.53-1.57.79-2.69.79h-60.59v1.2c0,8.15,1.34,15.27,4.03,21.35,2.69,6.08,6.47,10.79,11.35,14.13,4.88,3.34,10.56,5,17.05,5,5.99,0,11.12-1.53,15.38-4.59,4.26-3.06,7.69-7.24,10.28-12.55l5.56,3.34c-3.09,7.72-7.87,13.93-14.36,18.62-6.49,4.69-14.39,7.04-23.72,7.04-8.4,0-15.75-1.99-22.05-5.98ZM1175.66,93.52c2.9,0,4.99-.8,6.25-2.41,1.27-1.61,1.9-4.08,1.9-7.41,0-4.14-.83-7.8-2.5-10.98-1.67-3.18-4.02-5.65-7.04-7.41-3.03-1.76-6.52-2.64-10.47-2.64-4.63,0-8.82,1.27-12.55,3.8-3.74,2.53-6.81,6.11-9.22,10.75-2.41,4.63-4.02,10.07-4.82,16.31h38.45Z"/>
      <path d="M1226.78,152.11c-5.5-1.57-10.19-3.72-14.08-6.44l-3.43-25.48h6.02c2.04,8.52,5.47,15.16,10.28,19.92,4.82,4.76,10.68,7.13,17.6,7.13,5.68,0,10.22-1.53,13.62-4.59,3.4-3.06,5.1-7.24,5.1-12.55,0-4.08-1.2-7.52-3.61-10.33-2.41-2.81-6.21-5.2-11.4-7.18l-13.16-5c-7.66-2.9-13.31-6.39-16.95-10.47-3.65-4.08-5.47-9.08-5.47-15.01,0-5.25,1.37-9.91,4.12-13.99,2.75-4.08,6.58-7.26,11.49-9.54,4.91-2.28,10.45-3.43,16.63-3.43,3.71,0,7.07.32,10.1.97,3.03.65,6.3,1.56,9.82,2.73,2.28.74,4.26,1.3,5.93,1.67l2.5,23.99h-5.84c-3.4-15.13-11.27-22.7-23.62-22.7-5.37,0-9.68,1.27-12.92,3.8-3.24,2.53-4.86,5.96-4.86,10.28,0,3.89,1.39,7.23,4.17,10.01,2.78,2.78,7.13,5.25,13.06,7.41l13.16,4.82c7.53,2.78,13.16,6.35,16.86,10.7s5.56,9.74,5.56,16.17c0,5.74-1.45,10.84-4.35,15.29-2.9,4.45-6.96,7.92-12.18,10.42-5.22,2.5-11.13,3.75-17.74,3.75-5.44,0-10.9-.79-16.4-2.36Z"/>
      <path d="M1304.68,152.11c-5.5-1.57-10.19-3.72-14.08-6.44l-3.43-25.48h6.02c2.04,8.52,5.47,15.16,10.28,19.92,4.82,4.76,10.68,7.13,17.6,7.13,5.68,0,10.22-1.53,13.62-4.59,3.4-3.06,5.1-7.24,5.1-12.55,0-4.08-1.2-7.52-3.61-10.33-2.41-2.81-6.21-5.2-11.4-7.18l-13.16-5c-7.66-2.9-13.31-6.39-16.95-10.47-3.65-4.08-5.47-9.08-5.47-15.01,0-5.25,1.37-9.91,4.12-13.99,2.75-4.08,6.58-7.26,11.49-9.54,4.91-2.28,10.45-3.43,16.63-3.43,3.71,0,7.07.32,10.1.97,3.03.65,6.3,1.56,9.82,2.73,2.28.74,4.26,1.3,5.93,1.67l2.5,23.99h-5.84c-3.4-15.13-11.27-22.7-23.62-22.7-5.37,0-9.68,1.27-12.92,3.8-3.24,2.53-4.86,5.96-4.86,10.28,0,3.89,1.39,7.23,4.17,10.01s7.13,5.25,13.06,7.41l13.16,4.82c7.53,2.78,13.16,6.35,16.86,10.7,3.71,4.35,5.56,9.74,5.56,16.17,0,5.74-1.45,10.84-4.35,15.29-2.9,4.45-6.96,7.92-12.18,10.42-5.22,2.5-11.13,3.75-17.74,3.75-5.44,0-10.9-.79-16.4-2.36Z"/>
    </g>
    <g>
      <path d="M1440.34,145.63c-9.76-5.9-17.36-13.99-22.79-24.27-5.44-10.28-8.15-21.72-8.15-34.32s2.93-25.09,8.8-35.81c5.87-10.71,14-19.16,24.41-25.34,10.41-6.18,22.13-9.26,35.16-9.26,5.37,0,9.99.42,13.85,1.25,3.86.83,7.98,1.99,12.37,3.47,1.91.68,3.43,1.17,4.54,1.48,1.11.31,2.13.46,3.06.46,1.61,0,2.87-.42,3.8-1.25.93-.83,1.57-1.9,1.95-3.2h4.54l4.26,41.69h-6.86c-2.35-11.36-7.07-20.15-14.17-26.36-7.1-6.21-16.18-9.31-27.24-9.31-9.76,0-18.3,2.52-25.62,7.55-7.32,5.03-12.96,12.09-16.91,21.17-3.95,9.08-5.93,19.49-5.93,31.22s1.99,22.62,5.98,31.92c3.98,9.3,9.62,16.54,16.91,21.72,7.29,5.19,15.78,7.78,25.48,7.78,6.05,0,11.36-1.05,15.93-3.15,4.57-2.1,8.11-5.22,10.61-9.36,2.5-4.14,3.75-9.14,3.75-15.01v-3.89c0-5.74-1.85-9.8-5.56-12.18-3.71-2.38-9.36-3.72-16.95-4.03v-6.02h52.07v6.02c-4.14.31-7.24,1.65-9.31,4.03-2.07,2.38-3.14,6.44-3.2,12.18l-.74,38.54h-5.28c-1.11-4.14-3.65-6.21-7.6-6.21-1.42,0-2.92.2-4.49.6-1.57.4-3.75,1.03-6.53,1.9-4.63,1.48-8.96,2.65-12.97,3.52-4.02.86-8.65,1.3-13.9,1.3-12.41,0-23.5-2.95-33.26-8.85Z"/>
      <path d="M1540.42,146.23c5.74-.31,10.02-1.65,12.83-4.03,2.81-2.38,4.22-6.44,4.22-12.18v-44.75c0-4.32-.5-7.67-1.48-10.05-.99-2.38-2.49-4.08-4.49-5.1-2.01-1.02-4.71-1.62-8.11-1.81v-5.37l26.4-6.76,2.5,17.88c3.15-5.74,7.13-10.33,11.95-13.76,4.82-3.43,9.67-5.14,14.54-5.14,3.71,0,6.65.99,8.85,2.96,2.19,1.98,3.29,4.54,3.29,7.69,0,2.84-.9,5.23-2.69,7.18-1.79,1.95-3.95,2.92-6.49,2.92-1.3,0-2.44-.26-3.43-.79-.99-.52-2.1-1.28-3.34-2.27-1.36-1.05-2.58-1.85-3.66-2.41-1.08-.56-2.36-.83-3.84-.83-2.72,0-5.17.99-7.37,2.96-2.19,1.98-3.92,4.83-5.19,8.57-1.27,3.74-1.9,8.17-1.9,13.29v35.57c0,5.74,1.4,9.81,4.22,12.18,2.81,2.38,7.09,3.72,12.83,4.03v6.02h-49.66v-6.02Z"/>
      <path d="M1633.03,147.99c-6.67-4.32-11.95-10.22-15.84-17.69-3.89-7.47-5.84-15.72-5.84-24.74s1.99-17.74,5.98-25.43c3.98-7.69,9.4-13.77,16.26-18.25,6.86-4.48,14.39-6.72,22.6-6.72s15.5,2.1,22.23,6.3c6.73,4.2,12.06,9.93,15.98,17.19,3.92,7.26,5.88,15.24,5.88,23.95,0,9.57-2.01,18.31-6.02,26.22-4.02,7.91-9.48,14.16-16.4,18.76-6.92,4.6-14.51,6.9-22.79,6.9s-15.38-2.16-22.05-6.49ZM1670.92,142.29c3.89-3.12,6.89-7.58,8.99-13.39,2.1-5.8,3.15-12.6,3.15-20.38,0-8.89-1.2-16.81-3.61-23.76-2.41-6.95-5.78-12.37-10.1-16.26-4.32-3.89-9.26-5.84-14.82-5.84s-9.91,1.51-13.8,4.54c-3.89,3.03-6.89,7.33-8.99,12.92-2.1,5.59-3.15,12.12-3.15,19.59,0,8.59,1.22,16.49,3.66,23.72,2.44,7.23,5.84,12.96,10.19,17.19,4.35,4.23,9.28,6.35,14.78,6.35s9.82-1.56,13.71-4.68Z"/>
      <path d="M1731.91,151.37c-4.11-2.62-7.29-6.33-9.54-11.12-2.26-4.79-3.38-10.3-3.38-16.54v-44.01c0-5.74-1.25-9.8-3.75-12.18-2.5-2.38-6.38-3.72-11.63-4.03v-6.02h30.94v63.28c0,7.1,1.61,12.65,4.82,16.63,3.21,3.98,7.94,5.98,14.17,5.98,4.69,0,8.92-1.17,12.69-3.52,3.77-2.35,6.72-5.71,8.85-10.1,2.13-4.38,3.2-9.48,3.2-15.29v-34.83c0-5.74-1.41-9.8-4.22-12.18-2.81-2.38-7.09-3.72-12.83-4.03v-6.02h32.61v67.07c0,4.39.49,7.77,1.48,10.14.99,2.38,2.47,4.08,4.45,5.1,1.98,1.02,4.69,1.62,8.15,1.81v5.28l-25.94,6.95-3.15-18.99c-3.52,6.3-8.12,11.3-13.8,15.01-5.68,3.71-11.92,5.56-18.71,5.56-5.5,0-10.3-1.31-14.41-3.94Z"/>
      <path d="M1808.62,191.44c5.74-.31,10.02-1.65,12.83-4.03,2.81-2.38,4.22-6.44,4.22-12.18v-89.86c0-4.32-.5-7.67-1.48-10.05-.99-2.38-2.47-4.08-4.45-5.1-1.98-1.02-4.69-1.62-8.15-1.81v-5.47l29.65-7.6v13.71c4.08-4.32,8.79-7.72,14.13-10.19,5.34-2.47,10.82-3.71,16.44-3.71,7.04,0,13.32,1.9,18.85,5.7,5.53,3.8,9.83,9.11,12.92,15.93,3.09,6.83,4.63,14.62,4.63,23.39,0,10.5-2.07,19.87-6.21,28.12-4.14,8.25-9.91,14.67-17.32,19.27-7.41,4.6-15.87,6.9-25.38,6.9-5.87,0-11.89-.9-18.07-2.69v23.44c0,5.74,1.4,9.8,4.22,12.18,2.81,2.38,7.09,3.72,12.83,4.03v6.02h-49.66v-6.02ZM1843.78,135.57c1.7,3.65,4.14,6.45,7.32,8.43,3.18,1.98,6.9,2.96,11.16,2.96,5.68,0,10.73-1.7,15.15-5.1,4.41-3.4,7.86-8.15,10.33-14.27,2.47-6.11,3.71-13.12,3.71-21.03s-1.2-14.99-3.61-21.08c-2.41-6.08-5.81-10.79-10.19-14.13-4.39-3.34-9.42-5-15.1-5-3.95,0-7.77.76-11.44,2.27-3.68,1.51-6.96,3.66-9.87,6.44v47.71c0,4.88.85,9.14,2.55,12.78Z"/>
    </g>
  </g>
</svg>