<?xml version="1.0" encoding="UTF-8"?>
<svg id="Lager_1" xmlns="http://www.w3.org/2000/svg" version="1.1" viewBox="0 0 1912.5 197.5">
  <!-- Generator: Adobe Illustrator 30.3.0, SVG Export Plug-In . SVG Version: 2.1.3 Build 182)  -->
  <defs>
    <style>
      .st0 {
        fill: #fff;
      }
    </style>
  </defs>
  <g>
    <path class="st0" d="M0,133.7h49.2c4.8,0,9.5,1.9,12.8,5.3l27,26.8c3.4,3.4,8,5.3,12.8,5.3h20.4s0-37.4,0-37.4h-49.2c-4.8,0-9.5-1.9-12.8-5.3l-27-26.8c-3.4-3.4-8-5.3-12.8-5.3H0s0,37.4,0,37.4Z"/>
    <path class="st0" d="M46.4,37.4h49.2c4.8,0,9.5,1.9,12.8,5.3l27,26.8c3.4,3.4,8,5.3,12.8,5.3h20.4s0-37.4,0-37.4h-49.2c-4.8,0-9.5-1.9-12.8-5.3l-27-26.8C76.2,1.9,71.6,0,66.7,0h-20.4s0,37.4,0,37.4Z"/>
    <path class="st0" d="M0,85.5h72.4c4.8,0,9.5,1.9,12.8,5.3l27,26.8c3.4,3.4,8,5.3,12.8,5.3h43.5s0-37.4,0-37.4h-72.4c-4.8,0-9.5-1.9-12.8-5.3l-27-26.8c-3.4-3.4-8-5.3-12.8-5.3H0s0,37.4,0,37.4Z"/>
  </g>
  <g>
    <path class="st0" d="M251.3,40.2l.6,89.8c0,5.7,1.4,9.8,4.2,12.2,2.8,2.4,7.1,3.7,12.9,4v6h-43.8v-6c5.7-.3,10-1.7,12.8-4,2.8-2.4,4.2-6.4,4.2-12.2V41.1c0-5.7-1.4-9.8-4.2-12.2-2.8-2.4-7.1-3.7-12.8-4v-6h32.3l81.7,101.9-.5-79.7c0-5.7-1.5-9.8-4.3-12.2-2.8-2.4-7.1-3.7-12.9-4v-6h43.8v6c-5.7.3-10,1.7-12.8,4-2.8,2.4-4.2,6.4-4.2,12.2v112.7h-5.9l-91.1-113.5Z"/>
    <path class="st0" d="M389.5,148c-6.7-4.3-12-10.2-15.8-17.7-3.9-7.5-5.8-15.7-5.8-24.7s2-17.7,6-25.4c4-7.7,9.4-13.8,16.3-18.3,6.9-4.5,14.4-6.7,22.6-6.7s15.5,2.1,22.2,6.3c6.7,4.2,12.1,9.9,16,17.2,3.9,7.3,5.9,15.2,5.9,23.9s-2,18.3-6,26.2c-4,7.9-9.5,14.2-16.4,18.8-6.9,4.6-14.5,6.9-22.8,6.9s-15.4-2.2-22-6.5ZM427.3,142.3c3.9-3.1,6.9-7.6,9-13.4,2.1-5.8,3.1-12.6,3.1-20.4s-1.2-16.8-3.6-23.8c-2.4-6.9-5.8-12.4-10.1-16.3-4.3-3.9-9.3-5.8-14.8-5.8s-9.9,1.5-13.8,4.5c-3.9,3-6.9,7.3-9,12.9-2.1,5.6-3.1,12.1-3.1,19.6s1.2,16.5,3.7,23.7c2.4,7.2,5.8,13,10.2,17.2,4.4,4.2,9.3,6.3,14.8,6.3s9.8-1.6,13.7-4.7Z"/>
    <path class="st0" d="M465.1,146.2c5.7-.3,10-1.7,12.8-4,2.8-2.4,4.2-6.4,4.2-12.2v-44.7c0-4.3-.5-7.7-1.5-10.1-1-2.4-2.5-4.1-4.5-5.1-2-1-4.7-1.6-8.1-1.8v-5.4l26.4-6.8,2.5,17.9c3.1-5.7,7.1-10.3,12-13.8,4.8-3.4,9.7-5.1,14.5-5.1s6.7,1,8.8,3c2.2,2,3.3,4.5,3.3,7.7s-.9,5.2-2.7,7.2c-1.8,1.9-4,2.9-6.5,2.9s-2.4-.3-3.4-.8c-1-.5-2.1-1.3-3.3-2.3-1.4-1-2.6-1.9-3.7-2.4-1.1-.6-2.4-.8-3.8-.8-2.7,0-5.2,1-7.4,3-2.2,2-3.9,4.8-5.2,8.6-1.3,3.7-1.9,8.2-1.9,13.3v35.6c0,5.7,1.4,9.8,4.2,12.2,2.8,2.4,7.1,3.7,12.8,4v6h-49.7v-6Z"/>
    <path class="st0" d="M557.6,148.1c-5.9-4.2-10.6-10.1-14-17.5-3.4-7.4-5.1-15.7-5.1-24.9s1.9-18.6,5.6-26.2c3.7-7.7,8.9-13.6,15.5-17.9,6.6-4.3,14.2-6.4,22.7-6.4s17.5,2.7,23.7,8.2v-23.1c0-4.3-.5-7.6-1.5-9.9-1-2.3-2.6-4-4.6-5-2.1-1-4.9-1.6-8.5-1.8v-4.9l30.2-8v114c0,4.3.5,7.7,1.5,10.1,1,2.4,2.5,4.1,4.4,5.1,2,1,4.7,1.6,8.2,1.8v5.2l-25.9,6.9-3.1-16.9c-3.1,5.4-7.2,9.7-12.4,12.8-5.2,3.2-10.8,4.8-16.9,4.8s-13.8-2.1-19.7-6.3ZM559.4,123c2.4,6.2,5.8,11.1,10.1,14.5,4.3,3.4,9.2,5.1,14.7,5.1s8.4-1.2,11.7-3.5c3.3-2.3,5.8-5.5,7.6-9.4,1.7-4,2.6-8.3,2.6-13.2v-29.6c0-5.1-.9-9.4-2.8-13.1-1.9-3.6-4.4-6.4-7.8-8.3-3.3-1.9-7.3-2.9-11.8-2.9s-10.6,1.6-14.8,4.7c-4.2,3.1-7.4,7.6-9.7,13.4-2.3,5.8-3.4,12.7-3.4,20.7s1.2,15.3,3.6,21.5Z"/>
    <path class="st0" d="M640.4,146.2c5.7-.3,10-1.7,12.8-4,2.8-2.4,4.2-6.4,4.2-12.2v-44.7c0-4.3-.5-7.7-1.5-10.1-1-2.4-2.5-4.1-4.5-5.1-2-1-4.7-1.6-8.1-1.8v-5.4l29.6-7.6v74.7c0,5.7,1.4,9.8,4.2,12.2,2.8,2.4,7.1,3.7,12.8,4v6h-49.7v-6ZM657.3,30c-2.1-2.1-3.1-4.6-3.1-7.6s1-5.6,3.1-7.6c2.1-2.1,4.7-3.1,7.7-3.1s5.6,1,7.6,3.1c2.1,2.1,3.1,4.6,3.1,7.6s-1,5.6-3.1,7.6c-2.1,2.1-4.6,3.1-7.6,3.1s-5.6-1-7.7-3.1Z"/>
    <path class="st0" d="M718.3,148.3c-6.5-4.1-11.6-9.9-15.2-17.1-3.6-7.3-5.4-15.5-5.4-24.7s2-18.5,6.1-26.3c4.1-7.8,9.6-13.9,16.6-18.3,7-4.4,14.7-6.6,23.1-6.6s11.5,1.2,16.4,3.5c5,2.3,8.9,5.4,11.7,9,2.8,3.7,4.3,7.4,4.3,11.2s-.9,5.1-2.6,6.9c-1.7,1.9-3.9,2.8-6.4,2.8s-4.6-.9-6.2-2.7c-1.5-1.8-2.4-4.3-2.7-7.5-.4-4.4-2.1-8-5.1-10.8-3-2.8-7.1-4.2-12.1-4.2s-9.7,1.5-13.6,4.6c-3.9,3.1-6.9,7.4-9,13.2-2.1,5.7-3.2,12.4-3.2,20.1s1.3,15.7,3.9,22c2.6,6.2,6.3,11,11,14.4,4.7,3.3,10.2,5,16.5,5s11.5-1.6,15.8-4.9c4.4-3.2,7.8-7.9,10.3-13.9l5.7,2.9c-2.7,8.5-7.3,15.3-13.9,20.2-6.6,5-14.4,7.5-23.5,7.5s-16.1-2.1-22.6-6.2Z"/>
    <path class="st0" d="M815.7,146.2c4.6-.3,8.3-1.6,11.3-3.8,2.9-2.3,5.4-6.1,7.4-11.4l41.4-112.8h12.2l43.7,112.9c2.1,5.4,4.5,9.2,7.2,11.4,2.7,2.2,6.1,3.5,10,3.8v6h-49.1v-6c4.4-.2,7.8-1,10.1-2.4,2.3-1.3,3.4-3.4,3.4-6.3s-.5-4-1.4-6.6l-10.6-28.7h-47.2l-10.1,28.6c-.9,2.6-1.4,4.8-1.4,6.6,0,3,1.1,5.1,3.4,6.4,2.3,1.3,5.6,2.1,10.1,2.4v6h-40.5v-6ZM898.6,94.8l-21.3-58-20.5,58h41.8Z"/>
    <path class="st0" d="M969.7,148.3c-6.5-4.1-11.6-9.9-15.2-17.1-3.6-7.3-5.4-15.5-5.4-24.7s2-18.5,6.1-26.3c4.1-7.8,9.6-13.9,16.6-18.3,7-4.4,14.7-6.6,23.1-6.6s11.5,1.2,16.4,3.5c5,2.3,8.9,5.4,11.7,9,2.8,3.7,4.3,7.4,4.3,11.2s-.9,5.1-2.6,6.9c-1.7,1.9-3.9,2.8-6.4,2.8s-4.6-.9-6.2-2.7c-1.5-1.8-2.4-4.3-2.7-7.5-.4-4.4-2.1-8-5.1-10.8-3-2.8-7.1-4.2-12.1-4.2s-9.7,1.5-13.6,4.6c-3.9,3.1-6.9,7.4-9,13.2-2.1,5.7-3.2,12.4-3.2,20.1s1.3,15.7,3.9,22c2.6,6.2,6.3,11,11,14.4,4.7,3.3,10.2,5,16.5,5s11.5-1.6,15.8-4.9c4.4-3.2,7.8-7.9,10.3-13.9l5.7,2.9c-2.7,8.5-7.3,15.3-13.9,20.2-6.6,5-14.4,7.5-23.5,7.5s-16.1-2.1-22.6-6.2Z"/>
    <path class="st0" d="M1057.1,148.3c-6.5-4.1-11.6-9.9-15.2-17.1-3.6-7.3-5.4-15.5-5.4-24.7s2-18.5,6.1-26.3c4.1-7.8,9.6-13.9,16.6-18.3,7-4.4,14.7-6.6,23.1-6.6s11.5,1.2,16.4,3.5c5,2.3,8.9,5.4,11.7,9,2.8,3.7,4.3,7.4,4.3,11.2s-.9,5.1-2.6,6.9c-1.7,1.9-3.9,2.8-6.4,2.8s-4.6-.9-6.2-2.7c-1.5-1.8-2.4-4.3-2.7-7.5-.4-4.4-2.1-8-5.1-10.8-3-2.8-7.1-4.2-12.1-4.2s-9.7,1.5-13.6,4.6c-3.9,3.1-6.9,7.4-9,13.2-2.1,5.7-3.2,12.4-3.2,20.1s1.3,15.7,3.9,22c2.6,6.2,6.3,11,11,14.4s10.2,5,16.5,5,11.5-1.6,15.8-4.9c4.4-3.2,7.8-7.9,10.3-13.9l5.7,2.9c-2.7,8.5-7.3,15.3-13.9,20.2-6.6,5-14.4,7.5-23.5,7.5s-16.1-2.1-22.6-6.2Z"/>
    <path class="st0" d="M1145.3,148.5c-6.3-4-11.1-9.5-14.5-16.7-3.4-7.1-5.1-15.3-5.1-24.5s1.9-18.5,5.7-26.5c3.8-8,9.1-14.2,15.7-18.8,6.6-4.6,13.9-6.9,21.9-6.9s13.5,1.8,19.1,5.5c5.6,3.6,10,8.7,13.2,15.2,3.2,6.5,4.8,13.9,4.8,22.1s-.3,1.7-1,2.2c-.7.5-1.6.8-2.7.8h-60.6v1.2c0,8.2,1.3,15.3,4,21.4,2.7,6.1,6.5,10.8,11.3,14.1,4.9,3.3,10.6,5,17,5s11.1-1.5,15.4-4.6c4.3-3.1,7.7-7.2,10.3-12.6l5.6,3.3c-3.1,7.7-7.9,13.9-14.4,18.6-6.5,4.7-14.4,7-23.7,7s-15.7-2-22-6ZM1180.8,93.5c2.9,0,5-.8,6.3-2.4,1.3-1.6,1.9-4.1,1.9-7.4s-.8-7.8-2.5-11c-1.7-3.2-4-5.7-7-7.4-3-1.8-6.5-2.6-10.5-2.6s-8.8,1.3-12.6,3.8c-3.7,2.5-6.8,6.1-9.2,10.7-2.4,4.6-4,10.1-4.8,16.3h38.4Z"/>
    <path class="st0" d="M1231.9,152.1c-5.5-1.6-10.2-3.7-14.1-6.4l-3.4-25.5h6c2,8.5,5.5,15.2,10.3,19.9,4.8,4.8,10.7,7.1,17.6,7.1s10.2-1.5,13.6-4.6c3.4-3.1,5.1-7.2,5.1-12.6s-1.2-7.5-3.6-10.3c-2.4-2.8-6.2-5.2-11.4-7.2l-13.2-5c-7.7-2.9-13.3-6.4-17-10.5-3.6-4.1-5.5-9.1-5.5-15s1.4-9.9,4.1-14c2.7-4.1,6.6-7.3,11.5-9.5,4.9-2.3,10.5-3.4,16.6-3.4s7.1.3,10.1,1c3,.6,6.3,1.6,9.8,2.7,2.3.7,4.3,1.3,5.9,1.7l2.5,24h-5.8c-3.4-15.1-11.3-22.7-23.6-22.7s-9.7,1.3-12.9,3.8c-3.2,2.5-4.9,6-4.9,10.3s1.4,7.2,4.2,10c2.8,2.8,7.1,5.3,13.1,7.4l13.2,4.8c7.5,2.8,13.2,6.3,16.9,10.7s5.6,9.7,5.6,16.2-1.5,10.8-4.4,15.3c-2.9,4.4-7,7.9-12.2,10.4-5.2,2.5-11.1,3.8-17.7,3.8s-10.9-.8-16.4-2.4Z"/>
    <path class="st0" d="M1309.8,152.1c-5.5-1.6-10.2-3.7-14.1-6.4l-3.4-25.5h6c2,8.5,5.5,15.2,10.3,19.9,4.8,4.8,10.7,7.1,17.6,7.1s10.2-1.5,13.6-4.6c3.4-3.1,5.1-7.2,5.1-12.6s-1.2-7.5-3.6-10.3c-2.4-2.8-6.2-5.2-11.4-7.2l-13.2-5c-7.7-2.9-13.3-6.4-17-10.5-3.6-4.1-5.5-9.1-5.5-15s1.4-9.9,4.1-14c2.7-4.1,6.6-7.3,11.5-9.5,4.9-2.3,10.5-3.4,16.6-3.4s7.1.3,10.1,1c3,.6,6.3,1.6,9.8,2.7,2.3.7,4.3,1.3,5.9,1.7l2.5,24h-5.8c-3.4-15.1-11.3-22.7-23.6-22.7s-9.7,1.3-12.9,3.8c-3.2,2.5-4.9,6-4.9,10.3s1.4,7.2,4.2,10,7.1,5.3,13.1,7.4l13.2,4.8c7.5,2.8,13.2,6.3,16.9,10.7,3.7,4.4,5.6,9.7,5.6,16.2s-1.5,10.8-4.4,15.3c-2.9,4.4-7,7.9-12.2,10.4-5.2,2.5-11.1,3.8-17.7,3.8s-10.9-.8-16.4-2.4Z"/>
    <path class="st0" d="M1445.4,145.6c-9.8-5.9-17.4-14-22.8-24.3-5.4-10.3-8.2-21.7-8.2-34.3s2.9-25.1,8.8-35.8c5.9-10.7,14-19.2,24.4-25.3,10.4-6.2,22.1-9.3,35.2-9.3s10,.4,13.9,1.3c3.9.8,8,2,12.4,3.5,1.9.7,3.4,1.2,4.5,1.5,1.1.3,2.1.5,3.1.5,1.6,0,2.9-.4,3.8-1.3.9-.8,1.6-1.9,1.9-3.2h4.5l4.3,41.7h-6.9c-2.3-11.4-7.1-20.1-14.2-26.4-7.1-6.2-16.2-9.3-27.2-9.3s-18.3,2.5-25.6,7.6c-7.3,5-13,12.1-16.9,21.2-4,9.1-5.9,19.5-5.9,31.2s2,22.6,6,31.9c4,9.3,9.6,16.5,16.9,21.7,7.3,5.2,15.8,7.8,25.5,7.8s11.4-1,15.9-3.1c4.6-2.1,8.1-5.2,10.6-9.4,2.5-4.1,3.8-9.1,3.8-15v-3.9c0-5.7-1.9-9.8-5.6-12.2-3.7-2.4-9.4-3.7-17-4v-6h52.1v6c-4.1.3-7.2,1.7-9.3,4-2.1,2.4-3.1,6.4-3.2,12.2l-.7,38.5h-5.3c-1.1-4.1-3.6-6.2-7.6-6.2s-2.9.2-4.5.6c-1.6.4-3.8,1-6.5,1.9-4.6,1.5-9,2.7-13,3.5-4,.9-8.6,1.3-13.9,1.3-12.4,0-23.5-2.9-33.3-8.8Z"/>
    <path class="st0" d="M1545,146.2c5.7-.3,10-1.7,12.8-4,2.8-2.4,4.2-6.4,4.2-12.2v-44.7c0-4.3-.5-7.7-1.5-10.1-1-2.4-2.5-4.1-4.5-5.1-2-1-4.7-1.6-8.1-1.8v-5.4l26.4-6.8,2.5,17.9c3.1-5.7,7.1-10.3,12-13.8,4.8-3.4,9.7-5.1,14.5-5.1s6.7,1,8.8,3c2.2,2,3.3,4.5,3.3,7.7s-.9,5.2-2.7,7.2c-1.8,1.9-4,2.9-6.5,2.9s-2.4-.3-3.4-.8c-1-.5-2.1-1.3-3.3-2.3-1.4-1-2.6-1.9-3.7-2.4-1.1-.6-2.4-.8-3.8-.8-2.7,0-5.2,1-7.4,3-2.2,2-3.9,4.8-5.2,8.6-1.3,3.7-1.9,8.2-1.9,13.3v35.6c0,5.7,1.4,9.8,4.2,12.2,2.8,2.4,7.1,3.7,12.8,4v6h-49.7v-6Z"/>
    <path class="st0" d="M1637.3,148c-6.7-4.3-12-10.2-15.8-17.7-3.9-7.5-5.8-15.7-5.8-24.7s2-17.7,6-25.4,9.4-13.8,16.3-18.3c6.9-4.5,14.4-6.7,22.6-6.7s15.5,2.1,22.2,6.3c6.7,4.2,12.1,9.9,16,17.2,3.9,7.3,5.9,15.2,5.9,23.9s-2,18.3-6,26.2c-4,7.9-9.5,14.2-16.4,18.8-6.9,4.6-14.5,6.9-22.8,6.9s-15.4-2.2-22-6.5ZM1675.2,142.3c3.9-3.1,6.9-7.6,9-13.4,2.1-5.8,3.1-12.6,3.1-20.4s-1.2-16.8-3.6-23.8c-2.4-6.9-5.8-12.4-10.1-16.3-4.3-3.9-9.3-5.8-14.8-5.8s-9.9,1.5-13.8,4.5c-3.9,3-6.9,7.3-9,12.9-2.1,5.6-3.1,12.1-3.1,19.6s1.2,16.5,3.7,23.7c2.4,7.2,5.8,13,10.2,17.2,4.4,4.2,9.3,6.3,14.8,6.3s9.8-1.6,13.7-4.7Z"/>
    <path class="st0" d="M1736.2,151.4c-4.1-2.6-7.3-6.3-9.5-11.1-2.3-4.8-3.4-10.3-3.4-16.5v-44c0-5.7-1.3-9.8-3.8-12.2-2.5-2.4-6.4-3.7-11.6-4v-6h30.9v63.3c0,7.1,1.6,12.6,4.8,16.6,3.2,4,7.9,6,14.2,6s8.9-1.2,12.7-3.5c3.8-2.3,6.7-5.7,8.8-10.1,2.1-4.4,3.2-9.5,3.2-15.3v-34.8c0-5.7-1.4-9.8-4.2-12.2-2.8-2.4-7.1-3.7-12.8-4v-6h32.6v67.1c0,4.4.5,7.8,1.5,10.1,1,2.4,2.5,4.1,4.4,5.1,2,1,4.7,1.6,8.2,1.8v5.3l-25.9,6.9-3.1-19c-3.5,6.3-8.1,11.3-13.8,15-5.7,3.7-11.9,5.6-18.7,5.6s-10.3-1.3-14.4-3.9Z"/>
    <path class="st0" d="M1812.9,191.4c5.7-.3,10-1.7,12.8-4,2.8-2.4,4.2-6.4,4.2-12.2v-89.9c0-4.3-.5-7.7-1.5-10.1-1-2.4-2.5-4.1-4.4-5.1-2-1-4.7-1.6-8.2-1.8v-5.5l29.6-7.6v13.7c4.1-4.3,8.8-7.7,14.1-10.2,5.3-2.5,10.8-3.7,16.4-3.7s13.3,1.9,18.9,5.7c5.5,3.8,9.8,9.1,12.9,15.9,3.1,6.8,4.6,14.6,4.6,23.4s-2.1,19.9-6.2,28.1c-4.1,8.2-9.9,14.7-17.3,19.3-7.4,4.6-15.9,6.9-25.4,6.9s-11.9-.9-18.1-2.7v23.4c0,5.7,1.4,9.8,4.2,12.2,2.8,2.4,7.1,3.7,12.8,4v6h-49.7v-6ZM1848,135.6c1.7,3.6,4.1,6.5,7.3,8.4,3.2,2,6.9,3,11.2,3s10.7-1.7,15.1-5.1c4.4-3.4,7.9-8.2,10.3-14.3,2.5-6.1,3.7-13.1,3.7-21s-1.2-15-3.6-21.1c-2.4-6.1-5.8-10.8-10.2-14.1-4.4-3.3-9.4-5-15.1-5s-7.8.8-11.4,2.3c-3.7,1.5-7,3.7-9.9,6.4v47.7c0,4.9.8,9.1,2.5,12.8Z"/>
  </g>
</svg>