<?xml version="1.0" encoding="UTF-8"?>
<svg id="Lager_1" data-name="Lager 1" xmlns="http://www.w3.org/2000/svg" viewBox="0 0 472.33 471.3">
  <defs>
    <style>
      .cls-1 {
        fill: #fff;
      }
    </style>
  </defs>
  <rect x="0" y="-1.03" width="472.33" height="472.33"/>
  <g>
    <path class="cls-1" d="M77.28,327.74h92.66c9.1,0,17.82,3.64,24.21,10.11l50.94,51.55c6.4,6.47,15.11,10.11,24.21,10.11h38.37v-71.78h-92.66c-9.1,0-17.82-3.64-24.21-10.11l-50.94-51.55c-6.4-6.47-15.11-10.11-24.21-10.11h-38.37v71.78Z"/>
    <path class="cls-1" d="M164.66,142.52h92.66c9.1,0,17.82,3.64,24.21,10.11l50.94,51.55c6.4,6.47,15.11,10.11,24.21,10.11h38.37v-71.78h-92.66c-9.1,0-17.82-3.64-24.21-10.11l-50.94-51.55c-6.4-6.47-15.11-10.11-24.21-10.11h-38.37v71.78Z"/>
    <path class="cls-1" d="M77.28,235.13h136.35c9.1,0,17.82,3.64,24.21,10.11l50.94,51.55c6.4,6.47,15.11,10.11,24.21,10.11h82.06v-71.78h-136.35c-9.1,0-17.82-3.64-24.21-10.11l-50.94-51.55c-6.4-6.47-15.11-10.11-24.21-10.11h-82.06v71.78Z"/>
  </g>
</svg>