<?xml version="1.0" encoding="UTF-8"?>
<svg id="Lager_1" data-name="Lager 1" xmlns="http://www.w3.org/2000/svg" viewBox="0 0 455.53 471.3">
  <path d="M0,368.41h132.82c13.04,0,25.54,5.22,34.71,14.5l73.02,73.89c9.17,9.28,21.67,14.5,34.71,14.5h55v-102.89h-132.82c-13.04,0-25.54-5.22-34.71-14.5l-73.02-73.89c-9.17-9.28-21.67-14.5-34.71-14.5H0v102.89Z"/>
  <path d="M125.26,102.89h132.82c13.04,0,25.54,5.22,34.71,14.5l73.02,73.89c9.17,9.28,21.67,14.5,34.71,14.5h55v-102.89h-132.82c-13.04,0-25.54-5.22-34.71-14.5L214.98,14.5C205.81,5.22,193.31,0,180.27,0h-55v102.89Z"/>
  <path d="M0,235.65h195.46c13.04,0,25.54,5.22,34.71,14.5l73.02,73.89c9.17,9.28,21.67,14.5,34.71,14.5h117.64v-102.89h-195.46c-13.04,0-25.54-5.22-34.71-14.5l-73.02-73.89c-9.17-9.28-21.67-14.5-34.71-14.5H0v102.89Z"/>
</svg>