<?xml version="1.0" encoding="UTF-8"?>
<svg id="Lager_1" xmlns="http://www.w3.org/2000/svg" version="1.1" viewBox="0 0 1016.3 471.3">
  <!-- Generator: Adobe Illustrator 30.3.0, SVG Export Plug-In . SVG Version: 2.1.3 Build 182)  -->
  <defs>
    <style>
      .st0 {
        fill: #fff;
      }
    </style>
  </defs>
  <g>
    <g>
      <path class="st0" d="M516,28.1l.5,85.3c0,5.5,1.3,9.3,4,11.6,2.7,2.3,6.8,3.5,12.3,3.8v5.7h-41.6v-5.7c5.5-.3,9.5-1.6,12.2-3.8,2.7-2.3,4-6.1,4-11.6V28.9c0-5.5-1.3-9.3-4-11.6-2.7-2.3-6.7-3.5-12.2-3.8v-5.7h30.7l77.7,96.8-.4-75.7c0-5.5-1.4-9.3-4.1-11.6-2.7-2.3-6.8-3.5-12.3-3.8v-5.7h41.6v5.7c-5.5.3-9.5,1.6-12.2,3.8-2.7,2.3-4,6.1-4,11.6v107.1h-5.6l-86.5-107.9Z"/>
      <path class="st0" d="M647.3,130.5c-6.3-4.1-11.4-9.7-15.1-16.8-3.7-7.1-5.5-14.9-5.5-23.5s1.9-16.9,5.7-24.2,8.9-13.1,15.5-17.3c6.5-4.3,13.7-6.4,21.5-6.4s14.7,2,21.1,6c6.4,4,11.5,9.4,15.2,16.3,3.7,6.9,5.6,14.5,5.6,22.8s-1.9,17.4-5.7,24.9c-3.8,7.5-9,13.5-15.6,17.8-6.6,4.4-13.8,6.6-21.7,6.6s-14.6-2.1-21-6.2ZM683.3,125.1c3.7-3,6.5-7.2,8.5-12.7,2-5.5,3-12,3-19.4s-1.1-16-3.4-22.6c-2.3-6.6-5.5-11.8-9.6-15.5-4.1-3.7-8.8-5.5-14.1-5.5s-9.4,1.4-13.1,4.3c-3.7,2.9-6.5,7-8.5,12.3-2,5.3-3,11.5-3,18.6s1.2,15.7,3.5,22.5c2.3,6.9,5.5,12.3,9.7,16.3,4.1,4,8.8,6,14,6s9.3-1.5,13-4.4Z"/>
      <path class="st0" d="M718.9,128.8c5.5-.3,9.5-1.6,12.2-3.8,2.7-2.3,4-6.1,4-11.6v-42.5c0-4.1-.5-7.3-1.4-9.6-.9-2.3-2.4-3.9-4.3-4.8-1.9-1-4.5-1.5-7.7-1.7v-5.1l25.1-6.4,2.4,17c3-5.5,6.8-9.8,11.4-13.1,4.6-3.3,9.2-4.9,13.8-4.9s6.3.9,8.4,2.8c2.1,1.9,3.1,4.3,3.1,7.3s-.9,5-2.6,6.8c-1.7,1.8-3.8,2.8-6.2,2.8s-2.3-.2-3.3-.7c-.9-.5-2-1.2-3.2-2.2-1.3-1-2.5-1.8-3.5-2.3-1-.5-2.2-.8-3.7-.8-2.6,0-4.9.9-7,2.8-2.1,1.9-3.7,4.6-4.9,8.1-1.2,3.6-1.8,7.8-1.8,12.6v33.8c0,5.5,1.3,9.3,4,11.6,2.7,2.3,6.7,3.5,12.2,3.8v5.7h-47.2v-5.7Z"/>
      <path class="st0" d="M806.8,130.6c-5.6-4-10.1-9.6-13.3-16.6-3.2-7.1-4.8-15-4.8-23.6s1.8-17.6,5.3-24.9c3.5-7.3,8.4-13,14.7-17,6.3-4.1,13.5-6.1,21.5-6.1s16.7,2.6,22.5,7.7v-21.9c0-4.1-.5-7.2-1.5-9.4-1-2.2-2.4-3.8-4.4-4.8-2-.9-4.7-1.5-8.1-1.7v-4.7L867.5,0v108.3c0,4.1.5,7.3,1.4,9.6.9,2.3,2.3,3.9,4.2,4.8,1.9,1,4.5,1.5,7.7,1.7v4.9l-24.7,6.6-2.9-16c-2.9,5.1-6.9,9.2-11.8,12.2-4.9,3-10.3,4.5-16,4.5s-13.1-2-18.8-6ZM808.5,106.7c2.3,5.9,5.5,10.5,9.6,13.8,4.1,3.3,8.7,4.9,14,4.9s8-1.1,11.1-3.3c3.1-2.2,5.5-5.2,7.2-9,1.6-3.8,2.5-7.9,2.5-12.5v-28.1c0-4.8-.9-9-2.6-12.4-1.8-3.5-4.2-6.1-7.4-7.9-3.2-1.8-6.9-2.7-11.2-2.7s-10.1,1.5-14.1,4.4c-4,3-7.1,7.2-9.2,12.8-2.1,5.5-3.2,12.1-3.2,19.7s1.1,14.5,3.4,20.4Z"/>
      <path class="st0" d="M885.4,128.8c5.5-.3,9.5-1.6,12.2-3.8,2.7-2.3,4-6.1,4-11.6v-42.5c0-4.1-.5-7.3-1.4-9.6-.9-2.3-2.4-3.9-4.3-4.8-1.9-1-4.5-1.5-7.7-1.7v-5.1l28.2-7.2v71c0,5.5,1.3,9.3,4,11.6,2.7,2.3,6.7,3.5,12.2,3.8v5.7h-47.2v-5.7ZM901.4,18.4c-2-2-3-4.4-3-7.3s1-5.3,3-7.3c2-2,4.4-2.9,7.3-2.9s5.3,1,7.3,2.9c2,2,2.9,4.4,2.9,7.3s-1,5.3-2.9,7.3c-2,2-4.4,2.9-7.3,2.9s-5.3-1-7.3-2.9Z"/>
      <path class="st0" d="M959.4,130.7c-6.2-3.9-11-9.4-14.4-16.3-3.4-6.9-5.1-14.8-5.1-23.5s1.9-17.5,5.8-25c3.9-7.4,9.1-13.2,15.8-17.4,6.6-4.2,13.9-6.3,21.9-6.3s10.9,1.1,15.6,3.3c4.7,2.2,8.4,5.1,11.1,8.6,2.7,3.5,4.1,7,4.1,10.6s-.8,4.8-2.5,6.6c-1.6,1.8-3.7,2.6-6.1,2.6s-4.4-.9-5.9-2.6c-1.4-1.7-2.3-4.1-2.6-7.1-.4-4.2-2-7.6-4.8-10.3-2.9-2.7-6.7-4-11.5-4s-9.2,1.5-12.9,4.4c-3.7,2.9-6.6,7.1-8.6,12.5-2,5.4-3,11.8-3,19.1s1.2,14.9,3.7,20.9c2.5,5.9,5.9,10.5,10.4,13.6,4.5,3.2,9.7,4.8,15.7,4.8s10.9-1.5,15.1-4.6c4.2-3.1,7.4-7.5,9.8-13.2l5.5,2.7c-2.5,8.1-6.9,14.5-13.2,19.2-6.3,4.7-13.7,7.1-22.3,7.1s-15.3-2-21.5-5.9Z"/>
    </g>
    <g>
      <path class="st0" d="M491.2,276.2c4.3-.3,7.9-1.5,10.7-3.7,2.8-2.1,5.1-5.8,7-10.9l39.4-107.2h11.6l41.6,107.3c2,5.1,4.3,8.7,6.9,10.8,2.6,2.1,5.8,3.3,9.5,3.6v5.7h-46.7v-5.7c4.2-.2,7.4-1,9.6-2.2,2.1-1.3,3.2-3.3,3.2-6s-.4-3.8-1.3-6.3l-10-27.3h-44.8l-9.6,27.2c-.9,2.5-1.3,4.5-1.3,6.3,0,2.8,1.1,4.9,3.2,6.1,2.1,1.3,5.4,2,9.6,2.2v5.7h-38.5v-5.7ZM570,227.3l-20.3-55.1-19.5,55.1h39.7Z"/>
      <path class="st0" d="M637.3,278.1c-6.2-3.9-11-9.4-14.4-16.3-3.4-6.9-5.1-14.8-5.1-23.5s1.9-17.5,5.8-25c3.9-7.4,9.1-13.2,15.8-17.4,6.6-4.2,13.9-6.3,21.9-6.3s10.9,1.1,15.6,3.3c4.7,2.2,8.4,5.1,11.1,8.6,2.7,3.5,4.1,7,4.1,10.6s-.8,4.8-2.5,6.6c-1.6,1.8-3.7,2.6-6.1,2.6s-4.4-.9-5.9-2.6c-1.4-1.7-2.3-4.1-2.6-7.1-.4-4.2-2-7.6-4.8-10.3-2.9-2.7-6.7-4-11.5-4s-9.2,1.5-12.9,4.4-6.6,7.1-8.6,12.5c-2,5.4-3,11.8-3,19.1s1.2,14.9,3.7,20.9c2.5,5.9,5.9,10.5,10.4,13.6,4.5,3.2,9.7,4.8,15.7,4.8s10.9-1.5,15.1-4.6c4.2-3.1,7.4-7.5,9.8-13.2l5.5,2.7c-2.5,8.1-6.9,14.5-13.2,19.2-6.3,4.7-13.7,7.1-22.3,7.1s-15.3-2-21.5-5.9Z"/>
      <path class="st0" d="M720.3,278.1c-6.2-3.9-11-9.4-14.4-16.3-3.4-6.9-5.1-14.8-5.1-23.5s1.9-17.5,5.8-25c3.9-7.4,9.1-13.2,15.8-17.4,6.6-4.2,13.9-6.3,21.9-6.3s10.9,1.1,15.6,3.3c4.7,2.2,8.4,5.1,11.1,8.6,2.7,3.5,4.1,7,4.1,10.6s-.8,4.8-2.5,6.6c-1.6,1.8-3.7,2.6-6.1,2.6s-4.4-.9-5.9-2.6c-1.4-1.7-2.3-4.1-2.6-7.1-.4-4.2-2-7.6-4.8-10.3-2.9-2.7-6.7-4-11.5-4s-9.2,1.5-12.9,4.4c-3.7,2.9-6.6,7.1-8.6,12.5-2,5.4-3,11.8-3,19.1s1.2,14.9,3.7,20.9c2.5,5.9,5.9,10.5,10.4,13.6,4.5,3.2,9.7,4.8,15.7,4.8s10.9-1.5,15.1-4.6c4.2-3.1,7.4-7.5,9.8-13.2l5.5,2.7c-2.5,8.1-6.9,14.5-13.2,19.2-6.3,4.7-13.7,7.1-22.3,7.1s-15.3-2-21.5-5.9Z"/>
      <path class="st0" d="M804,278.3c-6-3.8-10.6-9.1-13.8-15.8-3.2-6.8-4.8-14.5-4.8-23.3s1.8-17.6,5.5-25.2c3.6-7.6,8.6-13.5,14.9-17.9,6.3-4.3,13.3-6.5,20.8-6.5s12.8,1.7,18.1,5.2c5.3,3.5,9.5,8.3,12.5,14.5,3,6.2,4.5,13.2,4.5,21s-.3,1.6-1,2.1c-.6.5-1.5.7-2.6.7h-57.6v1.1c0,7.7,1.3,14.5,3.8,20.3,2.6,5.8,6.1,10.3,10.8,13.4,4.6,3.2,10,4.8,16.2,4.8s10.6-1.5,14.6-4.4,7.3-6.9,9.8-11.9l5.3,3.2c-2.9,7.3-7.5,13.2-13.6,17.7-6.2,4.5-13.7,6.7-22.5,6.7s-15-1.9-21-5.7ZM837.7,226.1c2.8,0,4.7-.8,5.9-2.3,1.2-1.5,1.8-3.9,1.8-7s-.8-7.4-2.4-10.4c-1.6-3-3.8-5.4-6.7-7-2.9-1.7-6.2-2.5-9.9-2.5s-8.4,1.2-11.9,3.6c-3.6,2.4-6.5,5.8-8.8,10.2-2.3,4.4-3.8,9.6-4.6,15.5h36.5Z"/>
      <path class="st0" d="M886.3,281.8c-5.2-1.5-9.7-3.5-13.4-6.1l-3.3-24.2h5.7c1.9,8.1,5.2,14.4,9.8,18.9,4.6,4.5,10.2,6.8,16.7,6.8s9.7-1.5,12.9-4.4c3.2-2.9,4.8-6.9,4.8-11.9s-1.1-7.1-3.4-9.8c-2.3-2.7-5.9-4.9-10.8-6.8l-12.5-4.8c-7.3-2.8-12.6-6.1-16.1-9.9-3.5-3.9-5.2-8.6-5.2-14.3s1.3-9.4,3.9-13.3c2.6-3.9,6.3-6.9,10.9-9.1,4.7-2.2,9.9-3.3,15.8-3.3s6.7.3,9.6.9c2.9.6,6,1.5,9.3,2.6,2.2.7,4.1,1.2,5.6,1.6l2.4,22.8h-5.5c-3.2-14.4-10.7-21.6-22.5-21.6s-9.2,1.2-12.3,3.6c-3.1,2.4-4.6,5.7-4.6,9.8s1.3,6.9,4,9.5c2.6,2.6,6.8,5,12.4,7l12.5,4.6c7.2,2.6,12.5,6,16,10.2,3.5,4.1,5.3,9.3,5.3,15.4s-1.4,10.3-4.1,14.5c-2.8,4.2-6.6,7.5-11.6,9.9-5,2.4-10.6,3.6-16.9,3.6s-10.4-.7-15.6-2.2Z"/>
      <path class="st0" d="M960.2,281.8c-5.2-1.5-9.7-3.5-13.4-6.1l-3.3-24.2h5.7c1.9,8.1,5.2,14.4,9.8,18.9,4.6,4.5,10.2,6.8,16.7,6.8s9.7-1.5,12.9-4.4c3.2-2.9,4.8-6.9,4.8-11.9s-1.1-7.1-3.4-9.8c-2.3-2.7-5.9-4.9-10.8-6.8l-12.5-4.8c-7.3-2.8-12.6-6.1-16.1-9.9-3.5-3.9-5.2-8.6-5.2-14.3s1.3-9.4,3.9-13.3c2.6-3.9,6.3-6.9,10.9-9.1,4.7-2.2,9.9-3.3,15.8-3.3s6.7.3,9.6.9c2.9.6,6,1.5,9.3,2.6,2.2.7,4.1,1.2,5.6,1.6l2.4,22.8h-5.5c-3.2-14.4-10.7-21.6-22.5-21.6s-9.2,1.2-12.3,3.6c-3.1,2.4-4.6,5.7-4.6,9.8s1.3,6.9,4,9.5,6.8,5,12.4,7l12.5,4.6c7.2,2.6,12.5,6,16,10.2,3.5,4.1,5.3,9.3,5.3,15.4s-1.4,10.3-4.1,14.5c-2.8,4.2-6.6,7.5-11.6,9.9-5,2.4-10.6,3.6-16.9,3.6s-10.4-.7-15.6-2.2Z"/>
    </g>
    <g>
      <path class="st0" d="M519.6,422c-9.3-5.6-16.5-13.3-21.7-23.1-5.2-9.8-7.7-20.6-7.7-32.6s2.8-23.8,8.4-34c5.6-10.2,13.3-18.2,23.2-24.1,9.9-5.9,21-8.8,33.4-8.8s9.5.4,13.2,1.2c3.7.8,7.6,1.9,11.8,3.3,1.8.6,3.3,1.1,4.3,1.4,1.1.3,2,.4,2.9.4,1.5,0,2.7-.4,3.6-1.2s1.5-1.8,1.8-3h4.3l4.1,39.6h-6.5c-2.2-10.8-6.7-19.1-13.5-25-6.8-5.9-15.4-8.8-25.9-8.8s-17.4,2.4-24.3,7.2c-7,4.8-12.3,11.5-16.1,20.1-3.8,8.6-5.6,18.5-5.6,29.7s1.9,21.5,5.7,30.3c3.8,8.8,9.1,15.7,16.1,20.6,6.9,4.9,15,7.4,24.2,7.4s10.8-1,15.1-3c4.3-2,7.7-5,10.1-8.9,2.4-3.9,3.6-8.7,3.6-14.3v-3.7c0-5.5-1.8-9.3-5.3-11.6-3.5-2.3-8.9-3.5-16.1-3.8v-5.7h49.5v5.7c-3.9.3-6.9,1.6-8.8,3.8-2,2.3-3,6.1-3,11.6l-.7,36.6h-5c-1.1-3.9-3.5-5.9-7.2-5.9s-2.8.2-4.3.6c-1.5.4-3.6,1-6.2,1.8-4.4,1.4-8.5,2.5-12.3,3.3-3.8.8-8.2,1.2-13.2,1.2-11.8,0-22.3-2.8-31.6-8.4Z"/>
      <path class="st0" d="M614.2,422.6c5.5-.3,9.5-1.6,12.2-3.8,2.7-2.3,4-6.1,4-11.6v-42.5c0-4.1-.5-7.3-1.4-9.6-.9-2.3-2.4-3.9-4.3-4.8-1.9-1-4.5-1.5-7.7-1.7v-5.1l25.1-6.4,2.4,17c3-5.5,6.8-9.8,11.4-13.1,4.6-3.3,9.2-4.9,13.8-4.9s6.3.9,8.4,2.8c2.1,1.9,3.1,4.3,3.1,7.3s-.9,5-2.6,6.8c-1.7,1.8-3.8,2.8-6.2,2.8s-2.3-.2-3.3-.7c-.9-.5-2-1.2-3.2-2.2-1.3-1-2.5-1.8-3.5-2.3-1-.5-2.2-.8-3.7-.8-2.6,0-4.9.9-7,2.8-2.1,1.9-3.7,4.6-4.9,8.1-1.2,3.6-1.8,7.8-1.8,12.6v33.8c0,5.5,1.3,9.3,4,11.6,2.7,2.3,6.7,3.5,12.2,3.8v5.7h-47.2v-5.7Z"/>
      <path class="st0" d="M701.8,424.3c-6.3-4.1-11.4-9.7-15.1-16.8-3.7-7.1-5.5-14.9-5.5-23.5s1.9-16.9,5.7-24.2c3.8-7.3,8.9-13.1,15.5-17.3,6.5-4.3,13.7-6.4,21.5-6.4s14.7,2,21.1,6c6.4,4,11.5,9.4,15.2,16.3,3.7,6.9,5.6,14.5,5.6,22.8s-1.9,17.4-5.7,24.9c-3.8,7.5-9,13.5-15.6,17.8-6.6,4.4-13.8,6.6-21.7,6.6s-14.6-2.1-21-6.2ZM737.8,418.9c3.7-3,6.5-7.2,8.5-12.7,2-5.5,3-12,3-19.4s-1.1-16-3.4-22.6c-2.3-6.6-5.5-11.8-9.6-15.5-4.1-3.7-8.8-5.5-14.1-5.5s-9.4,1.4-13.1,4.3c-3.7,2.9-6.5,7-8.5,12.3-2,5.3-3,11.5-3,18.6s1.2,15.7,3.5,22.5c2.3,6.9,5.5,12.3,9.7,16.3,4.1,4,8.8,6,14,6s9.3-1.5,13-4.4Z"/>
      <path class="st0" d="M795.7,427.5c-3.9-2.5-6.9-6-9.1-10.6-2.1-4.5-3.2-9.8-3.2-15.7v-41.8c0-5.5-1.2-9.3-3.6-11.6-2.4-2.3-6.1-3.5-11-3.8v-5.7h29.4v60.1c0,6.8,1.5,12,4.6,15.8,3.1,3.8,7.5,5.7,13.5,5.7s8.5-1.1,12.1-3.3c3.6-2.2,6.4-5.4,8.4-9.6,2-4.2,3-9,3-14.5v-33.1c0-5.5-1.3-9.3-4-11.6-2.7-2.3-6.7-3.5-12.2-3.8v-5.7h31v63.7c0,4.2.5,7.4,1.4,9.6.9,2.3,2.3,3.9,4.2,4.8,1.9,1,4.5,1.5,7.7,1.7v5l-24.7,6.6-3-18c-3.3,6-7.7,10.7-13.1,14.3-5.4,3.5-11.3,5.3-17.8,5.3s-9.8-1.2-13.7-3.7Z"/>
      <path class="st0" d="M868.5,465.6c5.5-.3,9.5-1.6,12.2-3.8,2.7-2.3,4-6.1,4-11.6v-85.4c0-4.1-.5-7.3-1.4-9.6-.9-2.3-2.3-3.9-4.2-4.8-1.9-1-4.5-1.5-7.7-1.7v-5.2l28.2-7.2v13c3.9-4.1,8.3-7.3,13.4-9.7,5.1-2.3,10.3-3.5,15.6-3.5s12.7,1.8,17.9,5.4c5.3,3.6,9.3,8.7,12.3,15.1,2.9,6.5,4.4,13.9,4.4,22.2s-2,18.9-5.9,26.7c-3.9,7.8-9.4,13.9-16.5,18.3-7,4.4-15.1,6.6-24.1,6.6s-11.3-.9-17.2-2.6v22.3c0,5.5,1.3,9.3,4,11.6,2.7,2.3,6.7,3.5,12.2,3.8v5.7h-47.2v-5.7ZM901.9,412.5c1.6,3.5,3.9,6.1,7,8,3,1.9,6.6,2.8,10.6,2.8s10.2-1.6,14.4-4.8c4.2-3.2,7.5-7.7,9.8-13.6,2.3-5.8,3.5-12.5,3.5-20s-1.1-14.2-3.4-20c-2.3-5.8-5.5-10.3-9.7-13.4-4.2-3.2-9-4.8-14.4-4.8s-7.4.7-10.9,2.2c-3.5,1.4-6.6,3.5-9.4,6.1v45.3c0,4.6.8,8.7,2.4,12.2Z"/>
    </g>
  </g>
  <g>
    <path class="st0" d="M0,336.6h118.5c11.6,0,22.8,4.7,31,12.9l65.2,65.9c8.2,8.3,19.3,12.9,31,12.9h49.1v-91.8h-118.5c-11.6,0-22.8-4.7-31-12.9l-65.2-65.9c-8.2-8.3-19.3-12.9-31-12.9H0v91.8Z"/>
    <path class="st0" d="M111.8,99.7h118.5c11.6,0,22.8,4.7,31,12.9l65.2,65.9c8.2,8.3,19.3,12.9,31,12.9h49.1v-91.8h-118.5c-11.6,0-22.8-4.7-31-12.9L191.9,20.8c-8.2-8.3-19.3-12.9-31-12.9h-49.1v91.8Z"/>
    <path class="st0" d="M0,218.1h174.4c11.6,0,22.8,4.7,31,12.9l65.2,65.9c8.2,8.3,19.3,12.9,31,12.9h105v-91.8h-174.4c-11.6,0-22.8-4.7-31-12.9l-65.2-65.9c-8.2-8.3-19.3-12.9-31-12.9H0v91.8Z"/>
  </g>
</svg>