<?xml version="1.0" encoding="UTF-8"?>
<svg id="Lager_1" data-name="Lager 1" xmlns="http://www.w3.org/2000/svg" viewBox="0 0 1022.07 473.9">
  <g>
    <g>
      <path d="M501.31,274.06c4.34-.29,7.91-1.51,10.7-3.65,2.79-2.14,5.12-5.77,7-10.87l39.36-107.24h11.62l41.56,107.33c1.99,5.11,4.28,8.72,6.87,10.83,2.58,2.11,5.75,3.32,9.51,3.61v5.72h-46.66v-5.72c4.23-.23,7.41-.98,9.55-2.25,2.14-1.26,3.21-3.27,3.21-6.03,0-1.7-.44-3.79-1.32-6.25l-10.04-27.29h-44.81l-9.6,27.21c-.88,2.47-1.32,4.55-1.32,6.25,0,2.82,1.07,4.86,3.21,6.12,2.14,1.26,5.36,2.01,9.64,2.25v5.72h-38.48v-5.72ZM580.11,225.19l-20.25-55.12-19.46,55.12h39.71Z"/>
      <path d="M647.42,275.99c-6.22-3.93-11.04-9.36-14.44-16.29-3.4-6.93-5.11-14.76-5.11-23.51,0-9.21,1.94-17.53,5.81-24.96,3.87-7.42,9.13-13.24,15.76-17.43,6.63-4.2,13.94-6.3,21.92-6.3,5.69,0,10.9,1.12,15.63,3.35,4.72,2.23,8.44,5.09,11.14,8.58,2.7,3.49,4.05,7.03,4.05,10.61,0,2.64-.82,4.84-2.47,6.6-1.64,1.76-3.67,2.64-6.08,2.64s-4.42-.85-5.85-2.55c-1.44-1.7-2.3-4.08-2.6-7.13-.35-4.17-1.97-7.59-4.84-10.26-2.88-2.67-6.72-4.01-11.53-4.01s-9.24,1.45-12.94,4.36c-3.7,2.91-6.56,7.07-8.58,12.5-2.03,5.43-3.04,11.81-3.04,19.15,0,7.98,1.23,14.94,3.7,20.87,2.47,5.93,5.94,10.48,10.43,13.65,4.49,3.17,9.73,4.75,15.72,4.75s10.89-1.54,15.06-4.62c4.17-3.08,7.42-7.47,9.77-13.16l5.46,2.73c-2.52,8.1-6.91,14.51-13.16,19.24-6.25,4.73-13.69,7.09-22.32,7.09-8.1,0-15.26-1.97-21.48-5.9Z"/>
      <path d="M730.41,275.99c-6.22-3.93-11.04-9.36-14.44-16.29-3.4-6.93-5.11-14.76-5.11-23.51,0-9.21,1.94-17.53,5.81-24.96,3.87-7.42,9.13-13.24,15.76-17.43,6.63-4.2,13.94-6.3,21.92-6.3,5.69,0,10.9,1.12,15.63,3.35,4.72,2.23,8.44,5.09,11.14,8.58,2.7,3.49,4.05,7.03,4.05,10.61,0,2.64-.82,4.84-2.47,6.6-1.64,1.76-3.67,2.64-6.08,2.64s-4.42-.85-5.85-2.55c-1.44-1.7-2.3-4.08-2.6-7.13-.35-4.17-1.97-7.59-4.84-10.26-2.88-2.67-6.72-4.01-11.53-4.01s-9.24,1.45-12.94,4.36c-3.7,2.91-6.56,7.07-8.58,12.5-2.03,5.43-3.04,11.81-3.04,19.15,0,7.98,1.23,14.94,3.7,20.87,2.47,5.93,5.94,10.48,10.43,13.65,4.49,3.17,9.73,4.75,15.72,4.75s10.89-1.54,15.06-4.62c4.17-3.08,7.42-7.47,9.77-13.16l5.46,2.73c-2.52,8.1-6.91,14.51-13.16,19.24-6.25,4.73-13.69,7.09-22.32,7.09-8.1,0-15.26-1.97-21.48-5.9Z"/>
      <path d="M814.17,276.21c-5.99-3.79-10.6-9.07-13.82-15.85-3.23-6.78-4.84-14.54-4.84-23.29,0-9.21,1.82-17.61,5.46-25.18,3.64-7.57,8.61-13.53,14.92-17.87,6.31-4.34,13.25-6.52,20.82-6.52,6.75,0,12.8,1.73,18.14,5.19,5.34,3.46,9.52,8.29,12.55,14.48,3.02,6.19,4.53,13.19,4.53,21,0,.88-.32,1.57-.97,2.07-.65.5-1.5.75-2.55.75h-57.58v1.14c0,7.75,1.28,14.51,3.83,20.29,2.55,5.78,6.15,10.26,10.79,13.43,4.64,3.17,10.04,4.75,16.2,4.75,5.69,0,10.57-1.45,14.62-4.36,4.05-2.91,7.31-6.88,9.77-11.93l5.28,3.17c-2.94,7.34-7.48,13.24-13.65,17.7-6.16,4.46-13.68,6.69-22.54,6.69-7.98,0-14.97-1.89-20.95-5.68ZM847.89,223.96c2.76,0,4.74-.76,5.94-2.29,1.2-1.53,1.8-3.87,1.8-7.04,0-3.93-.79-7.41-2.38-10.43-1.58-3.02-3.82-5.37-6.69-7.04-2.88-1.67-6.19-2.51-9.95-2.51-4.4,0-8.38,1.2-11.93,3.61-3.55,2.41-6.47,5.81-8.76,10.21-2.29,4.4-3.82,9.57-4.58,15.5h36.54Z"/>
      <path d="M896.4,279.65c-5.22-1.5-9.68-3.54-13.38-6.12l-3.26-24.21h5.72c1.94,8.1,5.19,14.41,9.77,18.93,4.58,4.52,10.15,6.78,16.73,6.78,5.4,0,9.71-1.45,12.94-4.36,3.23-2.91,4.84-6.88,4.84-11.93,0-3.87-1.14-7.15-3.43-9.82-2.29-2.67-5.9-4.94-10.83-6.82l-12.5-4.75c-7.28-2.76-12.65-6.08-16.11-9.95-3.46-3.87-5.19-8.63-5.19-14.26,0-4.99,1.31-9.42,3.92-13.29,2.61-3.87,6.25-6.9,10.92-9.07,4.67-2.17,9.93-3.26,15.8-3.26,3.52,0,6.72.31,9.6.92,2.88.62,5.99,1.48,9.33,2.6,2.17.7,4.05,1.23,5.63,1.58l2.38,22.8h-5.55c-3.23-14.38-10.71-21.57-22.45-21.57-5.11,0-9.2,1.2-12.28,3.61-3.08,2.41-4.62,5.67-4.62,9.77,0,3.7,1.32,6.87,3.96,9.51,2.64,2.64,6.78,4.99,12.41,7.04l12.5,4.58c7.16,2.64,12.5,6.03,16.02,10.17,3.52,4.14,5.28,9.26,5.28,15.36,0,5.46-1.38,10.3-4.14,14.53-2.76,4.23-6.62,7.53-11.58,9.9-4.96,2.38-10.58,3.57-16.86,3.57-5.17,0-10.36-.75-15.58-2.25Z"/>
      <path d="M970.37,279.65c-5.22-1.5-9.68-3.54-13.38-6.12l-3.26-24.21h5.72c1.94,8.1,5.19,14.41,9.77,18.93,4.58,4.52,10.15,6.78,16.73,6.78,5.4,0,9.71-1.45,12.94-4.36,3.23-2.91,4.84-6.88,4.84-11.93,0-3.87-1.14-7.15-3.43-9.82-2.29-2.67-5.9-4.94-10.83-6.82l-12.5-4.75c-7.28-2.76-12.65-6.08-16.11-9.95-3.46-3.87-5.19-8.63-5.19-14.26,0-4.99,1.31-9.42,3.92-13.29,2.61-3.87,6.25-6.9,10.92-9.07,4.67-2.17,9.93-3.26,15.8-3.26,3.52,0,6.72.31,9.6.92,2.88.62,5.99,1.48,9.33,2.6,2.17.7,4.05,1.23,5.63,1.58l2.38,22.8h-5.55c-3.23-14.38-10.71-21.57-22.45-21.57-5.11,0-9.2,1.2-12.28,3.61-3.08,2.41-4.62,5.67-4.62,9.77,0,3.7,1.32,6.87,3.96,9.51,2.64,2.64,6.78,4.99,12.41,7.04l12.5,4.58c7.16,2.64,12.5,6.03,16.02,10.17,3.52,4.14,5.28,9.26,5.28,15.36,0,5.46-1.38,10.3-4.14,14.53-2.76,4.23-6.62,7.53-11.58,9.9-4.96,2.38-10.58,3.57-16.86,3.57-5.17,0-10.36-.75-15.58-2.25Z"/>
    </g>
    <g>
      <path d="M526.14,28.09l.53,85.31c0,5.46,1.33,9.32,4.01,11.58,2.67,2.26,6.76,3.54,12.28,3.83v5.72h-41.64v-5.72c5.46-.29,9.52-1.57,12.19-3.83,2.67-2.26,4.01-6.12,4.01-11.58V28.88c0-5.46-1.34-9.32-4.01-11.58-2.67-2.26-6.74-3.54-12.19-3.83v-5.72h30.73l77.65,96.85-.44-75.72c-.06-5.46-1.42-9.32-4.09-11.58-2.67-2.26-6.77-3.54-12.28-3.83v-5.72h41.64v5.72c-5.46.29-9.52,1.57-12.19,3.83-2.67,2.26-4.01,6.12-4.01,11.58v107.06h-5.63l-86.55-107.85Z"/>
      <path d="M655.56,130.48c-6.34-4.11-11.36-9.71-15.06-16.82-3.7-7.1-5.55-14.94-5.55-23.51s1.89-16.86,5.68-24.17c3.79-7.31,8.94-13.09,15.45-17.34,6.52-4.26,13.68-6.38,21.48-6.38s14.73,2,21.13,5.99c6.4,3.99,11.46,9.44,15.19,16.33,3.73,6.9,5.59,14.48,5.59,22.76,0,9.1-1.91,17.4-5.72,24.92-3.82,7.51-9.01,13.46-15.58,17.83-6.57,4.37-13.79,6.56-21.66,6.56s-14.62-2.06-20.95-6.16ZM691.57,125.07c3.7-2.96,6.54-7.2,8.54-12.72,1.99-5.52,2.99-11.97,2.99-19.37,0-8.45-1.14-15.98-3.43-22.58-2.29-6.6-5.49-11.75-9.6-15.45-4.11-3.7-8.8-5.55-14.09-5.55s-9.42,1.44-13.12,4.31c-3.7,2.88-6.55,6.97-8.54,12.28-2,5.31-2.99,11.52-2.99,18.62,0,8.16,1.16,15.67,3.48,22.54,2.32,6.87,5.55,12.31,9.68,16.33,4.14,4.02,8.82,6.03,14.04,6.03s9.33-1.48,13.03-4.45Z"/>
      <path d="M725.81,128.81c5.46-.29,9.52-1.57,12.19-3.83,2.67-2.26,4.01-6.12,4.01-11.58v-42.53c0-4.11-.47-7.29-1.41-9.55-.94-2.26-2.36-3.87-4.27-4.84-1.91-.97-4.48-1.54-7.7-1.72v-5.11l25.09-6.43,2.38,16.99c2.99-5.46,6.78-9.82,11.36-13.07s9.19-4.89,13.82-4.89c3.52,0,6.32.94,8.41,2.82,2.08,1.88,3.13,4.31,3.13,7.31,0,2.7-.85,4.97-2.55,6.82-1.7,1.85-3.76,2.77-6.16,2.77-1.23,0-2.32-.25-3.26-.75-.94-.5-2-1.22-3.17-2.16-1.29-1-2.45-1.76-3.48-2.29-1.03-.53-2.25-.79-3.65-.79-2.58,0-4.92.94-7,2.82-2.08,1.88-3.73,4.59-4.93,8.14-1.2,3.55-1.8,7.76-1.8,12.63v33.81c0,5.46,1.33,9.32,4.01,11.58,2.67,2.26,6.74,3.54,12.19,3.83v5.72h-47.19v-5.72Z"/>
      <path d="M814.56,130.61c-5.63-4.02-10.07-9.57-13.29-16.64-3.23-7.07-4.84-14.95-4.84-23.64,0-9.33,1.76-17.64,5.28-24.92,3.52-7.28,8.44-12.96,14.75-17.04,6.31-4.08,13.48-6.12,21.53-6.12,9.16,0,16.67,2.58,22.54,7.75v-21.92c0-4.05-.48-7.19-1.45-9.42-.97-2.23-2.44-3.81-4.4-4.75-1.97-.94-4.65-1.5-8.06-1.67v-4.67L875.31,0v108.29c0,4.11.47,7.29,1.41,9.55.94,2.26,2.35,3.87,4.23,4.84,1.88.97,4.46,1.54,7.75,1.72v4.93l-24.65,6.6-2.91-16.02c-2.94,5.11-6.87,9.17-11.8,12.19-4.93,3.02-10.27,4.53-16.02,4.53-6.87,0-13.12-2.01-18.75-6.03ZM816.23,106.71c2.29,5.93,5.47,10.52,9.55,13.78,4.08,3.26,8.73,4.89,13.95,4.89,4.28,0,8-1.11,11.14-3.35,3.14-2.23,5.53-5.22,7.18-8.98,1.64-3.76,2.47-7.92,2.47-12.5v-28.09c0-4.81-.88-8.95-2.64-12.41-1.76-3.46-4.23-6.1-7.4-7.92-3.17-1.82-6.9-2.73-11.18-2.73-5.4,0-10.1,1.48-14.09,4.45-3.99,2.96-7.06,7.22-9.2,12.77-2.14,5.55-3.21,12.11-3.21,19.68s1.14,14.5,3.43,20.43Z"/>
      <path d="M894.06,128.81c5.46-.29,9.52-1.57,12.19-3.83,2.67-2.26,4.01-6.12,4.01-11.58v-42.53c0-4.11-.47-7.29-1.41-9.55-.94-2.26-2.36-3.87-4.27-4.84-1.91-.97-4.48-1.54-7.7-1.72v-5.11l28.17-7.22v70.96c0,5.46,1.33,9.32,4.01,11.58,2.67,2.26,6.74,3.54,12.19,3.83v5.72h-47.19v-5.72ZM910.09,18.36c-2-1.97-2.99-4.39-2.99-7.26s1-5.3,2.99-7.26c1.99-1.97,4.43-2.95,7.31-2.95s5.3.98,7.26,2.95c1.97,1.97,2.95,4.39,2.95,7.26s-.98,5.3-2.95,7.26c-1.97,1.97-4.39,2.95-7.26,2.95s-5.31-.98-7.31-2.95Z"/>
      <path d="M965.1,130.74c-6.22-3.93-11.04-9.36-14.44-16.29-3.4-6.93-5.11-14.76-5.11-23.51,0-9.21,1.94-17.53,5.81-24.96,3.87-7.42,9.13-13.24,15.76-17.43,6.63-4.2,13.94-6.3,21.92-6.3,5.69,0,10.9,1.12,15.63,3.35,4.72,2.23,8.44,5.09,11.14,8.58,2.7,3.49,4.05,7.03,4.05,10.61,0,2.64-.82,4.84-2.47,6.6-1.64,1.76-3.67,2.64-6.08,2.64s-4.42-.85-5.85-2.55c-1.44-1.7-2.3-4.08-2.6-7.13-.35-4.17-1.97-7.59-4.84-10.26-2.88-2.67-6.72-4.01-11.53-4.01s-9.24,1.45-12.94,4.36c-3.7,2.91-6.56,7.07-8.58,12.5-2.03,5.43-3.04,11.81-3.04,19.15,0,7.98,1.23,14.94,3.7,20.87,2.47,5.93,5.94,10.48,10.43,13.65,4.49,3.17,9.73,4.75,15.72,4.75s10.89-1.54,15.06-4.62c4.17-3.08,7.42-7.47,9.77-13.16l5.46,2.73c-2.52,8.1-6.91,14.51-13.16,19.24-6.25,4.73-13.69,7.09-22.32,7.09-8.1,0-15.26-1.97-21.48-5.9Z"/>
    </g>
    <g>
      <path d="M532.93,424.64c-9.27-5.6-16.49-13.29-21.66-23.07-5.17-9.77-7.75-20.65-7.75-32.62s2.79-23.84,8.36-34.03c5.58-10.18,13.31-18.21,23.2-24.08,9.89-5.87,21.03-8.8,33.41-8.8,5.11,0,9.49.4,13.16,1.19,3.67.79,7.59,1.89,11.75,3.3,1.82.65,3.26,1.12,4.31,1.41,1.06.29,2.03.44,2.91.44,1.53,0,2.73-.4,3.61-1.19.88-.79,1.5-1.8,1.85-3.04h4.31l4.05,39.62h-6.52c-2.23-10.8-6.72-19.15-13.47-25.05-6.75-5.9-15.38-8.85-25.88-8.85-9.27,0-17.39,2.39-24.34,7.18-6.96,4.78-12.31,11.49-16.07,20.12-3.76,8.63-5.63,18.52-5.63,29.67s1.89,21.5,5.68,30.33c3.79,8.83,9.14,15.72,16.07,20.65,6.93,4.93,15,7.4,24.21,7.4,5.75,0,10.8-1,15.14-2.99,4.34-1.99,7.7-4.96,10.08-8.89,2.38-3.93,3.57-8.69,3.57-14.26v-3.7c0-5.46-1.76-9.32-5.28-11.58-3.52-2.26-8.89-3.54-16.11-3.83v-5.72h49.48v5.72c-3.93.29-6.88,1.57-8.85,3.83-1.97,2.26-2.98,6.12-3.04,11.58l-.7,36.63h-5.02c-1.06-3.93-3.46-5.9-7.22-5.9-1.35,0-2.77.19-4.27.57-1.5.38-3.57.98-6.21,1.8-4.4,1.41-8.51,2.52-12.33,3.35-3.82.82-8.22,1.23-13.21,1.23-11.8,0-22.33-2.8-31.61-8.41Z"/>
      <path d="M628.05,425.22c5.46-.29,9.52-1.57,12.19-3.83,2.67-2.26,4.01-6.12,4.01-11.58v-42.53c0-4.11-.47-7.29-1.41-9.55-.94-2.26-2.36-3.87-4.27-4.84-1.91-.97-4.48-1.54-7.7-1.72v-5.11l25.09-6.43,2.38,16.99c2.99-5.46,6.78-9.82,11.36-13.07,4.58-3.26,9.19-4.89,13.82-4.89,3.52,0,6.32.94,8.41,2.82,2.08,1.88,3.13,4.31,3.13,7.31,0,2.7-.85,4.97-2.55,6.82-1.7,1.85-3.76,2.77-6.16,2.77-1.23,0-2.32-.25-3.26-.75-.94-.5-2-1.22-3.17-2.16-1.29-1-2.45-1.76-3.48-2.29-1.03-.53-2.25-.79-3.65-.79-2.58,0-4.92.94-7,2.82-2.08,1.88-3.73,4.59-4.93,8.14-1.2,3.55-1.8,7.76-1.8,12.63v33.81c0,5.46,1.33,9.32,4.01,11.58,2.67,2.26,6.74,3.54,12.19,3.83v5.72h-47.19v-5.72Z"/>
      <path d="M716.05,426.89c-6.34-4.11-11.36-9.71-15.06-16.82-3.7-7.1-5.55-14.94-5.55-23.51s1.89-16.86,5.68-24.17c3.79-7.31,8.94-13.09,15.45-17.34,6.52-4.26,13.68-6.38,21.48-6.38s14.73,2,21.13,5.99c6.4,3.99,11.46,9.44,15.19,16.33,3.73,6.9,5.59,14.48,5.59,22.76,0,9.1-1.91,17.4-5.72,24.92-3.82,7.51-9.01,13.46-15.58,17.83-6.57,4.37-13.79,6.56-21.66,6.56s-14.62-2.06-20.95-6.16ZM752.06,421.47c3.7-2.96,6.54-7.2,8.54-12.72,1.99-5.52,2.99-11.97,2.99-19.37,0-8.45-1.14-15.98-3.43-22.58-2.29-6.6-5.49-11.75-9.6-15.45-4.11-3.7-8.8-5.55-14.09-5.55s-9.42,1.44-13.12,4.31c-3.7,2.88-6.55,6.97-8.54,12.28-2,5.31-2.99,11.52-2.99,18.62,0,8.16,1.16,15.67,3.48,22.54,2.32,6.87,5.55,12.31,9.68,16.33,4.14,4.02,8.82,6.03,14.04,6.03s9.33-1.48,13.03-4.45Z"/>
      <path d="M810.03,430.1c-3.9-2.49-6.93-6.02-9.07-10.57-2.14-4.55-3.21-9.79-3.21-15.72v-41.82c0-5.46-1.19-9.32-3.57-11.58-2.38-2.26-6.06-3.54-11.05-3.83v-5.72h29.41v60.13c0,6.75,1.53,12.02,4.58,15.8,3.05,3.79,7.54,5.68,13.47,5.68,4.46,0,8.48-1.11,12.06-3.35,3.58-2.23,6.38-5.43,8.41-9.6,2.03-4.17,3.04-9.01,3.04-14.53v-33.1c0-5.46-1.34-9.32-4.01-11.58-2.67-2.26-6.74-3.54-12.19-3.83v-5.72h30.99v63.74c0,4.17.47,7.38,1.41,9.64.94,2.26,2.35,3.87,4.23,4.84,1.88.97,4.46,1.54,7.75,1.72v5.02l-24.65,6.6-2.99-18.05c-3.35,5.99-7.72,10.74-13.12,14.26-5.4,3.52-11.33,5.28-17.78,5.28-5.22,0-9.79-1.25-13.69-3.74Z"/>
      <path d="M882.93,468.18c5.46-.29,9.52-1.57,12.19-3.83,2.67-2.26,4.01-6.12,4.01-11.58v-85.4c0-4.11-.47-7.29-1.41-9.55-.94-2.26-2.35-3.87-4.23-4.84-1.88-.97-4.46-1.54-7.75-1.72v-5.19l28.17-7.22v13.03c3.87-4.11,8.35-7.34,13.43-9.68,5.08-2.35,10.29-3.52,15.63-3.52,6.69,0,12.66,1.8,17.92,5.41,5.25,3.61,9.35,8.66,12.28,15.14,2.93,6.49,4.4,13.9,4.4,22.23,0,9.98-1.97,18.89-5.9,26.72-3.93,7.84-9.42,13.94-16.46,18.31-7.04,4.37-15.09,6.56-24.12,6.56-5.58,0-11.3-.85-17.17-2.55v22.28c0,5.46,1.33,9.32,4.01,11.58,2.67,2.26,6.74,3.54,12.19,3.83v5.72h-47.19v-5.72ZM916.34,415.09c1.61,3.46,3.93,6.13,6.96,8.01,3.02,1.88,6.56,2.82,10.61,2.82,5.4,0,10.2-1.61,14.4-4.84,4.2-3.23,7.47-7.75,9.82-13.56,2.35-5.81,3.52-12.47,3.52-19.99s-1.14-14.25-3.43-20.03c-2.29-5.78-5.52-10.26-9.68-13.43-4.17-3.17-8.95-4.75-14.35-4.75-3.76,0-7.38.72-10.87,2.16-3.49,1.44-6.62,3.48-9.38,6.12v45.34c0,4.64.81,8.69,2.42,12.15Z"/>
    </g>
  </g>
  <g>
    <path d="M0,338.57h119.24c11.71,0,22.93,4.69,31.16,13.02l65.55,66.34c8.23,8.33,19.45,13.02,31.16,13.02h49.38v-92.37h-119.24c-11.71,0-22.93-4.69-31.16-13.02l-65.55-66.34c-8.23-8.33-19.45-13.02-31.16-13.02H0v92.37Z"/>
    <path d="M112.45,100.21h119.24c11.71,0,22.93,4.69,31.16,13.02l65.55,66.34c8.23,8.33,19.45,13.02,31.16,13.02h49.38v-92.37h-119.24c-11.71,0-22.93-4.69-31.16-13.02L192.99,20.86c-8.23-8.33-19.45-13.02-31.16-13.02h-49.38v92.37Z"/>
    <path d="M0,219.39h175.47c11.71,0,22.93,4.69,31.16,13.02l65.55,66.34c8.23,8.33,19.45,13.02,31.16,13.02h105.61v-92.37h-175.47c-11.71,0-22.93-4.69-31.16-13.02l-65.55-66.34c-8.23-8.33-19.45-13.02-31.16-13.02H0v92.37Z"/>
  </g>
</svg>